P3
4 4
255
45 90 29   61 106 45   45 90 29   53 98 37
53 98 37   45 90 29   61 106 45   45 90 29
45 90 29   53 98 37   45 90 29   61 106 45
61 106 45  45 90 29   53 98 37   45 90 29
